<?plantuml 1.2026.2?><svg xmlns="http://www.w3.org/2000/svg" xmlns:xlink="http://www.w3.org/1999/xlink" contentStyleType="text/css" data-diagram-type="DESCRIPTION" height="835px" preserveAspectRatio="none" style="width:3391px;height:835px;background:#FFFFFF;" version="1.1" viewBox="0 0 3391 835" width="3391px" zoomAndPan="magnify"><title>university-coursework Repository Architecture Starter</title><defs/><g><g class="title" data-source-line="1"><text fill="#000000" font-family="Monospace" font-size="14" font-weight="bold" lengthAdjust="spacing" textLength="374.7997" x="1504.6002" y="24.9659">university-coursework&#160;Repository&#160;Architecture&#160;Starter</text></g><!--cluster Subject Areas--><g class="cluster" data-qualified-name="Subject Areas" data-source-line="17" id="ent0010"><rect fill="#F8FAFC" height="717" rx="2.5" ry="2.5" style="stroke:#181818;stroke-width:1;" width="2587" x="798" y="52.0679"/><text fill="#000000" font-family="Monospace" font-size="14" font-weight="bold" lengthAdjust="spacing" textLength="94.3037" x="2044.3482" y="69.0339">Subject&#160;Areas</text></g><!--cluster CIS (2 courses)--><g class="cluster" data-qualified-name="Subject Areas.CIS .2 courses." data-source-line="18" id="ent0011"><rect fill="#EEF7FF" height="95" rx="2.5" ry="2.5" style="stroke:#181818;stroke-width:1;" width="643" x="2734" y="82.0679"/><text fill="#000000" font-family="Monospace" font-size="14" font-weight="bold" lengthAdjust="spacing" textLength="101.5871" x="3004.7064" y="99.0339">CIS&#160;(2&#160;courses)</text></g><!--cluster CSC (10 courses)--><g class="cluster" data-qualified-name="Subject Areas.CSC .10 courses." data-source-line="22" id="ent0014"><rect fill="#EEF7FF" height="312" rx="2.5" ry="2.5" style="stroke:#181818;stroke-width:1;" width="1174" x="1552" y="82.0679"/><text fill="#000000" font-family="Monospace" font-size="14" font-weight="bold" lengthAdjust="spacing" textLength="114.1346" x="2081.9327" y="99.0339">CSC&#160;(10&#160;courses)</text></g><!--cluster ECN (3 courses)--><g class="cluster" data-qualified-name="Subject Areas.ECN .3 courses." data-source-line="34" id="ent0025"><rect fill="#EEF7FF" height="209" rx="2.5" ry="2.5" style="stroke:#181818;stroke-width:1;" width="476" x="1068" y="82.0679"/><text fill="#000000" font-family="Monospace" font-size="14" font-weight="bold" lengthAdjust="spacing" textLength="107.5791" x="1252.2105" y="99.0339">ECN&#160;(3&#160;courses)</text></g><!--cluster INB (1 course)--><g class="cluster" data-qualified-name="Subject Areas.INB .1 course." data-source-line="39" id="ent0029"><rect fill="#EEF7FF" height="95" rx="2.5" ry="2.5" style="stroke:#181818;stroke-width:1;" width="254" x="806" y="82.0679"/><text fill="#000000" font-family="Monospace" font-size="14" font-weight="bold" lengthAdjust="spacing" textLength="97.6496" x="884.1752" y="99.0339">INB&#160;(1&#160;course)</text></g><!--cluster MTH (8 courses)--><g class="cluster" data-qualified-name="Subject Areas.MTH .8 courses." data-source-line="42" id="ent0031"><rect fill="#EEF7FF" height="359" rx="2.5" ry="2.5" style="stroke:#181818;stroke-width:1;" width="777" x="1582" y="402.0679"/><text fill="#000000" font-family="Monospace" font-size="14" font-weight="bold" lengthAdjust="spacing" textLength="111.1631" x="1914.9185" y="419.0339">MTH&#160;(8&#160;courses)</text></g><!--entity contributor--><g class="entity" data-qualified-name="contributor" data-source-line="9" id="ent0002"><ellipse cx="443.9929" cy="109.5679" fill="#F1F1F1" rx="8" ry="8" style="stroke:#181818;stroke-width:0.5;"/><path d="M443.9929,117.5679 L443.9929,144.5679 M430.9929,125.5679 L456.9929,125.5679 M443.9929,144.5679 L430.9929,159.5679 M443.9929,144.5679 L456.9929,159.5679" fill="none" style="stroke:#181818;stroke-width:0.5;"/><text fill="#000000" font-family="Monospace" font-size="14" lengthAdjust="spacing" textLength="76.9857" x="405.5" y="176.0339">Contributor</text></g><!--entity governance--><g class="entity" data-qualified-name="governance" data-source-line="10" id="ent0003"><rect fill="#E2E8F0" height="77.2038" rx="2.5" ry="2.5" style="stroke:#181818;stroke-width:0.5;" width="166.6214" x="360.5" y="216.0679"/><text fill="#000000" font-family="Monospace" font-size="14" lengthAdjust="spacing" textLength="81.5917" x="370.5" y="241.0339">README.md</text><text fill="#000000" font-family="Monospace" font-size="14" lengthAdjust="spacing" textLength="78.4837" x="370.5" y="260.1018">AGENTS.md</text><text fill="#000000" font-family="Monospace" font-size="14" lengthAdjust="spacing" textLength="146.6214" x="370.5" y="279.1697">LESSONSLEARNED.md</text></g><!--entity blueprint--><g class="entity" data-qualified-name="blueprint" data-source-line="11" id="ent0004"><rect fill="#DBEAFE" height="39.0679" rx="2.5" ry="2.5" style="stroke:#181818;stroke-width:0.5;" width="305.1929" x="291.5" y="338.0679"/><text fill="#000000" font-family="Monospace" font-size="14" lengthAdjust="spacing" textLength="285.1929" x="301.5" y="363.0339">docs/contributor-architecture-blueprint.md</text></g><!--entity plantuml_source--><g class="entity" data-qualified-name="plantuml_source" data-source-line="12" id="ent0005"><rect fill="#FCE7F3" height="39.0679" rx="2.5" ry="2.5" style="stroke:#181818;stroke-width:0.5;" width="275.695" x="6" y="441.0679"/><text fill="#000000" font-family="Monospace" font-size="14" lengthAdjust="spacing" textLength="255.695" x="16" y="466.0339">docs/diagrams/repo-architecture.puml</text></g><!--entity drawio_source--><g class="entity" data-qualified-name="drawio_source" data-source-line="13" id="ent0006"><rect fill="#FCE7F3" height="39.0679" rx="2.5" ry="2.5" style="stroke:#181818;stroke-width:0.5;" width="287.063" x="300.5" y="441.0679"/><text fill="#000000" font-family="Monospace" font-size="14" lengthAdjust="spacing" textLength="267.063" x="310.5" y="466.0339">docs/diagrams/repo-architecture.drawio</text></g><!--entity workflows--><g class="entity" data-qualified-name="workflows" data-source-line="14" id="ent0007"><rect fill="#DCFCE7" height="39.0679" rx="2.5" ry="2.5" style="stroke:#181818;stroke-width:0.5;" width="144.6975" x="644.5" y="441.0679"/><text fill="#000000" font-family="Monospace" font-size="14" lengthAdjust="spacing" textLength="124.6975" x="654.5" y="466.0339">.github/workflows/</text></g><!--entity taxonomy_summary--><g class="entity" data-qualified-name="taxonomy_summary" data-source-line="15" id="ent0008"><rect fill="#E0F2FE" height="58.1358" rx="2.5" ry="2.5" style="stroke:#181818;stroke-width:0.5;" width="268.779" x="395.5" y="525.0679"/><text fill="#000000" font-family="Monospace" font-size="14" lengthAdjust="spacing" textLength="118.8595" x="405.5" y="550.0339">Course&#160;Taxonomy</text><text fill="#000000" font-family="Monospace" font-size="14" lengthAdjust="spacing" textLength="248.779" x="405.5" y="569.1018">5&#160;subject&#160;areas&#160;/&#160;24&#160;course&#160;directories</text></g><!--entity nested_patterns--><g class="entity" data-qualified-name="nested_patterns" data-source-line="16" id="ent0009"><rect fill="#DCFCE7" height="210.6792" rx="2.5" ry="2.5" style="stroke:#181818;stroke-width:0.5;" width="266.091" x="397" y="619.0679"/><text fill="#000000" font-family="Monospace" font-size="14" lengthAdjust="spacing" textLength="246.091" x="407" y="644.0339">Common&#160;Nested&#160;Deliverable&#160;Families</text><text fill="#000000" font-family="Monospace" font-size="14" lengthAdjust="spacing" textLength="28.6019" x="407" y="663.1018">HW/</text><text fill="#000000" font-family="Monospace" font-size="14" lengthAdjust="spacing" textLength="51.2118" x="407" y="682.1697">Project/</text><text fill="#000000" font-family="Monospace" font-size="14" lengthAdjust="spacing" textLength="89.8377" x="407" y="701.2376">Assignments/</text><text fill="#000000" font-family="Monospace" font-size="14" lengthAdjust="spacing" textLength="89.3897" x="407" y="720.3055">Exam/Exams/</text><text fill="#000000" font-family="Monospace" font-size="14" lengthAdjust="spacing" textLength="36.2039" x="407" y="739.3734">Final/</text><text fill="#000000" font-family="Monospace" font-size="14" lengthAdjust="spacing" textLength="43.9738" x="407" y="758.4414">Notes/</text><text fill="#000000" font-family="Monospace" font-size="14" lengthAdjust="spacing" textLength="35.7139" x="407" y="777.5093">Labs/</text><text fill="#000000" font-family="Monospace" font-size="14" lengthAdjust="spacing" textLength="96.0116" x="407" y="796.5772">Presentations/</text><text fill="#000000" font-family="Monospace" font-size="14" lengthAdjust="spacing" textLength="86.0157" x="407" y="815.6451">Deliverables/</text></g><!--entity cis_1--><g class="entity" data-qualified-name="Subject Areas.CIS .2 courses..cis_1" data-source-line="19" id="ent0012"><path d="M3168,112.0679 L3209,112.0679 A3.75,3.75 0 0 1 3211.5,114.5679 L3218.5,133.0679 L3365.7873,133.0679 A2.5,2.5 0 0 1 3368.2873,135.5679 L3368.2873,166.6358 A2.5,2.5 0 0 1 3365.7873,169.1358 L3168,169.1358 A2.5,2.5 0 0 1 3165.5,166.6358 L3165.5,114.5679 A2.5,2.5 0 0 1 3168,112.0679" fill="#FFFFFF" style="stroke:#181818;stroke-width:0.5;"/><line style="stroke:#181818;stroke-width:0.5;" x1="3165.5" x2="3218.5" y1="133.0679" y2="133.0679"/><text fill="#000000" font-family="Monospace" font-size="14" lengthAdjust="spacing" textLength="172.7873" x="3175.5" y="155.0339">CIS517-Social_Computing/</text></g><!--entity cis_2--><g class="entity" data-qualified-name="Subject Areas.CIS .2 courses..cis_2" data-source-line="20" id="ent0013"><path d="M2745,112.0679 L2786,112.0679 A3.75,3.75 0 0 1 2788.5,114.5679 L2795.5,133.0679 L3145.0307,133.0679 A2.5,2.5 0 0 1 3147.5307,135.5679 L3147.5307,166.6358 A2.5,2.5 0 0 1 3145.0307,169.1358 L2745,169.1358 A2.5,2.5 0 0 1 2742.5,166.6358 L2742.5,114.5679 A2.5,2.5 0 0 1 2745,112.0679" fill="#FFFFFF" style="stroke:#181818;stroke-width:0.5;"/><line style="stroke:#181818;stroke-width:0.5;" x1="2742.5" x2="2795.5" y1="133.0679" y2="133.0679"/><text fill="#000000" font-family="Monospace" font-size="14" lengthAdjust="spacing" textLength="375.0307" x="2752.5" y="155.0339">CIS562-Enterprise_Computing_and_Systems_Integration/</text></g><!--entity csc_1--><g class="entity" data-qualified-name="Subject Areas.CSC .10 courses..csc_1" data-source-line="23" id="ent0015"><path d="M1563,112.0679 L1604,112.0679 A3.75,3.75 0 0 1 1606.5,114.5679 L1613.5,133.0679 L1847.069,133.0679 A2.5,2.5 0 0 1 1849.569,135.5679 L1849.569,166.6358 A2.5,2.5 0 0 1 1847.069,169.1358 L1563,169.1358 A2.5,2.5 0 0 1 1560.5,166.6358 L1560.5,114.5679 A2.5,2.5 0 0 1 1563,112.0679" fill="#FFFFFF" style="stroke:#181818;stroke-width:0.5;"/><line style="stroke:#181818;stroke-width:0.5;" x1="1560.5" x2="1613.5" y1="133.0679" y2="133.0679"/><text fill="#000000" font-family="Monospace" font-size="14" lengthAdjust="spacing" textLength="259.069" x="1570.5" y="155.0339">CSC310-Human_Computer_Interaction/</text></g><!--entity csc_2--><g class="entity" data-qualified-name="Subject Areas.CSC .10 courses..csc_2" data-source-line="24" id="ent0016"><path d="M1870,112.0679 L1911,112.0679 A3.75,3.75 0 0 1 1913.5,114.5679 L1920.5,133.0679 L2089.7672,133.0679 A2.5,2.5 0 0 1 2092.2672,135.5679 L2092.2672,166.6358 A2.5,2.5 0 0 1 2089.7672,169.1358 L1870,169.1358 A2.5,2.5 0 0 1 1867.5,166.6358 L1867.5,114.5679 A2.5,2.5 0 0 1 1870,112.0679" fill="#FFFFFF" style="stroke:#181818;stroke-width:0.5;"/><line style="stroke:#181818;stroke-width:0.5;" x1="1867.5" x2="1920.5" y1="133.0679" y2="133.0679"/><text fill="#000000" font-family="Monospace" font-size="14" lengthAdjust="spacing" textLength="194.7672" x="1877.5" y="155.0339">CSC335-Computer_Networks/</text></g><!--entity csc_3--><g class="entity" data-qualified-name="Subject Areas.CSC .10 courses..csc_3" data-source-line="25" id="ent0017"><path d="M2113.5,112.0679 L2154.5,112.0679 A3.75,3.75 0 0 1 2157,114.5679 L2164,133.0679 L2342.1572,133.0679 A2.5,2.5 0 0 1 2344.6572,135.5679 L2344.6572,166.6358 A2.5,2.5 0 0 1 2342.1572,169.1358 L2113.5,169.1358 A2.5,2.5 0 0 1 2111,166.6358 L2111,114.5679 A2.5,2.5 0 0 1 2113.5,112.0679" fill="#FFFFFF" style="stroke:#181818;stroke-width:0.5;"/><line style="stroke:#181818;stroke-width:0.5;" x1="2111" x2="2164" y1="133.0679" y2="133.0679"/><text fill="#000000" font-family="Monospace" font-size="14" lengthAdjust="spacing" textLength="203.6572" x="2121" y="155.0339">CSC382-Software_Engineering/</text></g><!--entity csc_4--><g class="entity" data-qualified-name="Subject Areas.CSC .10 courses..csc_4" data-source-line="26" id="ent0018"><path d="M2366,112.0679 L2407,112.0679 A3.75,3.75 0 0 1 2409.5,114.5679 L2416.5,133.0679 L2564.0813,133.0679 A2.5,2.5 0 0 1 2566.5813,135.5679 L2566.5813,166.6358 A2.5,2.5 0 0 1 2564.0813,169.1358 L2366,169.1358 A2.5,2.5 0 0 1 2363.5,166.6358 L2363.5,114.5679 A2.5,2.5 0 0 1 2366,112.0679" fill="#FFFFFF" style="stroke:#181818;stroke-width:0.5;"/><line style="stroke:#181818;stroke-width:0.5;" x1="2363.5" x2="2416.5" y1="133.0679" y2="133.0679"/><text fill="#000000" font-family="Monospace" font-size="14" lengthAdjust="spacing" textLength="173.0813" x="2373.5" y="155.0339">CSC384-Database_Design/</text></g><!--entity csc_5--><g class="entity" data-qualified-name="Subject Areas.CSC .10 courses..csc_5" data-source-line="27" id="ent0019"><path d="M1562.5,226.0679 L1603.5,226.0679 A3.75,3.75 0 0 1 1606,228.5679 L1613,247.0679 L1729.6554,247.0679 A2.5,2.5 0 0 1 1732.1554,249.5679 L1732.1554,280.6358 A2.5,2.5 0 0 1 1729.6554,283.1358 L1562.5,283.1358 A2.5,2.5 0 0 1 1560,280.6358 L1560,228.5679 A2.5,2.5 0 0 1 1562.5,226.0679" fill="#FFFFFF" style="stroke:#181818;stroke-width:0.5;"/><line style="stroke:#181818;stroke-width:0.5;" x1="1560" x2="1613" y1="247.0679" y2="247.0679"/><text fill="#000000" font-family="Monospace" font-size="14" lengthAdjust="spacing" textLength="142.1554" x="1570" y="269.0339">CSC487-Data_Mining/</text></g><!--entity csc_6--><g class="entity" data-qualified-name="Subject Areas.CSC .10 courses..csc_6" data-source-line="28" id="ent0020"><path d="M1752.5,226.0679 L1793.5,226.0679 A3.75,3.75 0 0 1 1796,228.5679 L1803,247.0679 L2057.0509,247.0679 A2.5,2.5 0 0 1 2059.5509,249.5679 L2059.5509,280.6358 A2.5,2.5 0 0 1 2057.0509,283.1358 L1752.5,283.1358 A2.5,2.5 0 0 1 1750,280.6358 L1750,228.5679 A2.5,2.5 0 0 1 1752.5,226.0679" fill="#FFFFFF" style="stroke:#181818;stroke-width:0.5;"/><line style="stroke:#181818;stroke-width:0.5;" x1="1750" x2="1803" y1="247.0679" y2="247.0679"/><text fill="#000000" font-family="Monospace" font-size="14" lengthAdjust="spacing" textLength="279.5509" x="1760" y="269.0339">CSC535-Advanced_Computer_Networking/</text></g><!--entity csc_7--><g class="entity" data-qualified-name="Subject Areas.CSC .10 courses..csc_7" data-source-line="29" id="ent0021"><path d="M2080.5,226.0679 L2121.5,226.0679 A3.75,3.75 0 0 1 2124,228.5679 L2131,247.0679 L2371.7929,247.0679 A2.5,2.5 0 0 1 2374.2929,249.5679 L2374.2929,280.6358 A2.5,2.5 0 0 1 2371.7929,283.1358 L2080.5,283.1358 A2.5,2.5 0 0 1 2078,280.6358 L2078,228.5679 A2.5,2.5 0 0 1 2080.5,226.0679" fill="#FFFFFF" style="stroke:#181818;stroke-width:0.5;"/><line style="stroke:#181818;stroke-width:0.5;" x1="2078" x2="2131" y1="247.0679" y2="247.0679"/><text fill="#000000" font-family="Monospace" font-size="14" lengthAdjust="spacing" textLength="266.2929" x="2088" y="269.0339">CSC565-Computer_System_Architecture/</text></g><!--entity csc_8--><g class="entity" data-qualified-name="Subject Areas.CSC .10 courses..csc_8" data-source-line="30" id="ent0022"><path d="M2394.5,226.0679 L2435.5,226.0679 A3.75,3.75 0 0 1 2438,228.5679 L2445,247.0679 L2715.1789,247.0679 A2.5,2.5 0 0 1 2717.6789,249.5679 L2717.6789,280.6358 A2.5,2.5 0 0 1 2715.1789,283.1358 L2394.5,283.1358 A2.5,2.5 0 0 1 2392,280.6358 L2392,228.5679 A2.5,2.5 0 0 1 2394.5,226.0679" fill="#FFFFFF" style="stroke:#181818;stroke-width:0.5;"/><line style="stroke:#181818;stroke-width:0.5;" x1="2392" x2="2445" y1="247.0679" y2="247.0679"/><text fill="#000000" font-family="Monospace" font-size="14" lengthAdjust="spacing" textLength="295.6789" x="2402" y="269.0339">CSC575-Algorithm_and_Complexity_Analysis/</text></g><!--entity csc_9--><g class="entity" data-qualified-name="Subject Areas.CSC .10 courses..csc_9" data-source-line="31" id="ent0023"><path d="M1562.5,329.0679 L1603.5,329.0679 A3.75,3.75 0 0 1 1606,331.5679 L1613,350.0679 L1861.7729,350.0679 A2.5,2.5 0 0 1 1864.2729,352.5679 L1864.2729,383.6358 A2.5,2.5 0 0 1 1861.7729,386.1358 L1562.5,386.1358 A2.5,2.5 0 0 1 1560,383.6358 L1560,331.5679 A2.5,2.5 0 0 1 1562.5,329.0679" fill="#FFFFFF" style="stroke:#181818;stroke-width:0.5;"/><line style="stroke:#181818;stroke-width:0.5;" x1="1560" x2="1613" y1="350.0679" y2="350.0679"/><text fill="#000000" font-family="Monospace" font-size="14" lengthAdjust="spacing" textLength="274.2729" x="1570" y="372.0339">CSC580-Advanced_Software_Engineering/</text></g><!--entity csc_10--><g class="entity" data-qualified-name="Subject Areas.CSC .10 courses..csc_10" data-source-line="32" id="ent0024"><path d="M1885,329.0679 L1926,329.0679 A3.75,3.75 0 0 1 1928.5,331.5679 L1935.5,350.0679 L2286.9626,350.0679 A2.5,2.5 0 0 1 2289.4626,352.5679 L2289.4626,383.6358 A2.5,2.5 0 0 1 2286.9626,386.1358 L1885,386.1358 A2.5,2.5 0 0 1 1882.5,383.6358 L1882.5,331.5679 A2.5,2.5 0 0 1 1885,329.0679" fill="#FFFFFF" style="stroke:#181818;stroke-width:0.5;"/><line style="stroke:#181818;stroke-width:0.5;" x1="1882.5" x2="1935.5" y1="350.0679" y2="350.0679"/><text fill="#000000" font-family="Monospace" font-size="14" lengthAdjust="spacing" textLength="376.9626" x="1892.5" y="372.0339">CSC582-Advanced_Database_Concepts_and_Applications/</text></g><!--entity ecn_1--><g class="entity" data-qualified-name="Subject Areas.ECN .3 courses..ecn_1" data-source-line="35" id="ent0026"><path d="M1079,112.0679 L1120,112.0679 A3.75,3.75 0 0 1 1122.5,114.5679 L1129.5,133.0679 L1327.3411,133.0679 A2.5,2.5 0 0 1 1329.8411,135.5679 L1329.8411,166.6358 A2.5,2.5 0 0 1 1327.3411,169.1358 L1079,169.1358 A2.5,2.5 0 0 1 1076.5,166.6358 L1076.5,114.5679 A2.5,2.5 0 0 1 1079,112.0679" fill="#FFFFFF" style="stroke:#181818;stroke-width:0.5;"/><line style="stroke:#181818;stroke-width:0.5;" x1="1076.5" x2="1129.5" y1="133.0679" y2="133.0679"/><text fill="#000000" font-family="Monospace" font-size="14" lengthAdjust="spacing" textLength="223.3411" x="1086.5" y="155.0339">ECN360-International_Economics/</text></g><!--entity ecn_2--><g class="entity" data-qualified-name="Subject Areas.ECN .3 courses..ecn_2" data-source-line="36" id="ent0027"><path d="M1350.5,112.0679 L1391.5,112.0679 A3.75,3.75 0 0 1 1394,114.5679 L1401,133.0679 L1533.0553,133.0679 A2.5,2.5 0 0 1 1535.5553,135.5679 L1535.5553,166.6358 A2.5,2.5 0 0 1 1533.0553,169.1358 L1350.5,169.1358 A2.5,2.5 0 0 1 1348,166.6358 L1348,114.5679 A2.5,2.5 0 0 1 1350.5,112.0679" fill="#FFFFFF" style="stroke:#181818;stroke-width:0.5;"/><line style="stroke:#181818;stroke-width:0.5;" x1="1348" x2="1401" y1="133.0679" y2="133.0679"/><text fill="#000000" font-family="Monospace" font-size="14" lengthAdjust="spacing" textLength="157.5553" x="1358" y="155.0339">ECN370-Public_Finance/</text></g><!--entity ecn_3--><g class="entity" data-qualified-name="Subject Areas.ECN .3 courses..ecn_3" data-source-line="37" id="ent0028"><path d="M1078.5,226.0679 L1119.5,226.0679 A3.75,3.75 0 0 1 1122,228.5679 L1129,247.0679 L1489.4926,247.0679 A2.5,2.5 0 0 1 1491.9926,249.5679 L1491.9926,280.6358 A2.5,2.5 0 0 1 1489.4926,283.1358 L1078.5,283.1358 A2.5,2.5 0 0 1 1076,280.6358 L1076,228.5679 A2.5,2.5 0 0 1 1078.5,226.0679" fill="#FFFFFF" style="stroke:#181818;stroke-width:0.5;"/><line style="stroke:#181818;stroke-width:0.5;" x1="1076" x2="1129" y1="247.0679" y2="247.0679"/><text fill="#000000" font-family="Monospace" font-size="14" lengthAdjust="spacing" textLength="385.9926" x="1086" y="269.0339">ECN480-Quantatative_Methods_for_Public_Administration/</text></g><!--entity inb_1--><g class="entity" data-qualified-name="Subject Areas.INB .1 course..inb_1" data-source-line="40" id="ent0030"><path d="M816.5,112.0679 L857.5,112.0679 A3.75,3.75 0 0 1 860,114.5679 L867,133.0679 L1049.8612,133.0679 A2.5,2.5 0 0 1 1052.3612,135.5679 L1052.3612,166.6358 A2.5,2.5 0 0 1 1049.8612,169.1358 L816.5,169.1358 A2.5,2.5 0 0 1 814,166.6358 L814,114.5679 A2.5,2.5 0 0 1 816.5,112.0679" fill="#FFFFFF" style="stroke:#181818;stroke-width:0.5;"/><line style="stroke:#181818;stroke-width:0.5;" x1="814" x2="867" y1="133.0679" y2="133.0679"/><text fill="#000000" font-family="Monospace" font-size="14" lengthAdjust="spacing" textLength="208.3612" x="824" y="155.0339">INB385-International_Business/</text></g><!--entity mth_1--><g class="entity" data-qualified-name="Subject Areas.MTH .8 courses..mth_1" data-source-line="43" id="ent0032"><path d="M1593,432.0679 L1634,432.0679 A3.75,3.75 0 0 1 1636.5,434.5679 L1643.5,453.0679 L1830.8412,453.0679 A2.5,2.5 0 0 1 1833.3412,455.5679 L1833.3412,486.6358 A2.5,2.5 0 0 1 1830.8412,489.1358 L1593,489.1358 A2.5,2.5 0 0 1 1590.5,486.6358 L1590.5,434.5679 A2.5,2.5 0 0 1 1593,432.0679" fill="#FFFFFF" style="stroke:#181818;stroke-width:0.5;"/><line style="stroke:#181818;stroke-width:0.5;" x1="1590.5" x2="1643.5" y1="453.0679" y2="453.0679"/><text fill="#000000" font-family="Monospace" font-size="14" lengthAdjust="spacing" textLength="212.8412" x="1600.5" y="475.0339">MTH200-Proofs_and_Structures/</text></g><!--entity mth_2--><g class="entity" data-qualified-name="Subject Areas.MTH .8 courses..mth_2" data-source-line="44" id="ent0033"><path d="M1854.5,432.0679 L1895.5,432.0679 A3.75,3.75 0 0 1 1898,434.5679 L1905,453.0679 L2069.3672,453.0679 A2.5,2.5 0 0 1 2071.8672,455.5679 L2071.8672,486.6358 A2.5,2.5 0 0 1 2069.3672,489.1358 L1854.5,489.1358 A2.5,2.5 0 0 1 1852,486.6358 L1852,434.5679 A2.5,2.5 0 0 1 1854.5,432.0679" fill="#FFFFFF" style="stroke:#181818;stroke-width:0.5;"/><line style="stroke:#181818;stroke-width:0.5;" x1="1852" x2="1905" y1="453.0679" y2="453.0679"/><text fill="#000000" font-family="Monospace" font-size="14" lengthAdjust="spacing" textLength="189.8672" x="1862" y="475.0339">MTH357-Advanced_Calculus/</text></g><!--entity mth_3--><g class="entity" data-qualified-name="Subject Areas.MTH .8 courses..mth_3" data-source-line="45" id="ent0034"><path d="M2092.5,432.0679 L2133.5,432.0679 A3.75,3.75 0 0 1 2136,434.5679 L2143,453.0679 L2323.5372,453.0679 A2.5,2.5 0 0 1 2326.0372,455.5679 L2326.0372,486.6358 A2.5,2.5 0 0 1 2323.5372,489.1358 L2092.5,489.1358 A2.5,2.5 0 0 1 2090,486.6358 L2090,434.5679 A2.5,2.5 0 0 1 2092.5,432.0679" fill="#FFFFFF" style="stroke:#181818;stroke-width:0.5;"/><line style="stroke:#181818;stroke-width:0.5;" x1="2090" x2="2143" y1="453.0679" y2="453.0679"/><text fill="#000000" font-family="Monospace" font-size="14" lengthAdjust="spacing" textLength="206.0372" x="2100" y="475.0339">MTH372-Advanced_Probability/</text></g><!--entity mth_4--><g class="entity" data-qualified-name="Subject Areas.MTH .8 courses..mth_4" data-source-line="46" id="ent0035"><path d="M1592.5,525.5679 L1633.5,525.5679 A3.75,3.75 0 0 1 1636,528.0679 L1643,546.5679 L1809.3972,546.5679 A2.5,2.5 0 0 1 1811.8972,549.0679 L1811.8972,580.1358 A2.5,2.5 0 0 1 1809.3972,582.6358 L1592.5,582.6358 A2.5,2.5 0 0 1 1590,580.1358 L1590,528.0679 A2.5,2.5 0 0 1 1592.5,525.5679" fill="#FFFFFF" style="stroke:#181818;stroke-width:0.5;"/><line style="stroke:#181818;stroke-width:0.5;" x1="1590" x2="1643" y1="546.5679" y2="546.5679"/><text fill="#000000" font-family="Monospace" font-size="14" lengthAdjust="spacing" textLength="191.8972" x="1600" y="568.5339">MTH374-Numerical_Analysis/</text></g><!--entity mth_5--><g class="entity" data-qualified-name="Subject Areas.MTH .8 courses..mth_5" data-source-line="47" id="ent0036"><path d="M1833,525.5679 L1874,525.5679 A3.75,3.75 0 0 1 1876.5,528.0679 L1883.5,546.5679 L2076.8192,546.5679 A2.5,2.5 0 0 1 2079.3192,549.0679 L2079.3192,580.1358 A2.5,2.5 0 0 1 2076.8192,582.6358 L1833,582.6358 A2.5,2.5 0 0 1 1830.5,580.1358 L1830.5,528.0679 A2.5,2.5 0 0 1 1833,525.5679" fill="#FFFFFF" style="stroke:#181818;stroke-width:0.5;"/><line style="stroke:#181818;stroke-width:0.5;" x1="1830.5" x2="1883.5" y1="546.5679" y2="546.5679"/><text fill="#000000" font-family="Monospace" font-size="14" lengthAdjust="spacing" textLength="218.8192" x="1840.5" y="568.5339">MTH375-Mathematical_Statistics/</text></g><!--entity mth_6--><g class="entity" data-qualified-name="Subject Areas.MTH .8 courses..mth_6" data-source-line="48" id="ent0037"><path d="M2100,525.5679 L2141,525.5679 A3.75,3.75 0 0 1 2143.5,528.0679 L2150.5,546.5679 L2347.6411,546.5679 A2.5,2.5 0 0 1 2350.1411,549.0679 L2350.1411,580.1358 A2.5,2.5 0 0 1 2347.6411,582.6358 L2100,582.6358 A2.5,2.5 0 0 1 2097.5,580.1358 L2097.5,528.0679 A2.5,2.5 0 0 1 2100,525.5679" fill="#FFFFFF" style="stroke:#181818;stroke-width:0.5;"/><line style="stroke:#181818;stroke-width:0.5;" x1="2097.5" x2="2150.5" y1="546.5679" y2="546.5679"/><text fill="#000000" font-family="Monospace" font-size="14" lengthAdjust="spacing" textLength="222.6411" x="2107.5" y="568.5339">MTH385-History_of_Mathematics/</text></g><!--entity mth_7--><g class="entity" data-qualified-name="Subject Areas.MTH .8 courses..mth_7" data-source-line="49" id="ent0038"><path d="M1592.5,696.0679 L1633.5,696.0679 A3.75,3.75 0 0 1 1636,698.5679 L1643,717.0679 L1835.5912,717.0679 A2.5,2.5 0 0 1 1838.0912,719.5679 L1838.0912,750.6358 A2.5,2.5 0 0 1 1835.5912,753.1358 L1592.5,753.1358 A2.5,2.5 0 0 1 1590,750.6358 L1590,698.5679 A2.5,2.5 0 0 1 1592.5,696.0679" fill="#FFFFFF" style="stroke:#181818;stroke-width:0.5;"/><line style="stroke:#181818;stroke-width:0.5;" x1="1590" x2="1643" y1="717.0679" y2="717.0679"/><text fill="#000000" font-family="Monospace" font-size="14" lengthAdjust="spacing" textLength="218.0912" x="1600" y="739.0339">MTH402-Mathematics_Capstone/</text></g><!--entity mth_8--><g class="entity" data-qualified-name="Subject Areas.MTH .8 courses..mth_8" data-source-line="50" id="ent0039"><path d="M1859,696.0679 L1900,696.0679 A3.75,3.75 0 0 1 1902.5,698.5679 L1909.5,717.0679 L2241.3766,717.0679 A2.5,2.5 0 0 1 2243.8766,719.5679 L2243.8766,750.6358 A2.5,2.5 0 0 1 2241.3766,753.1358 L1859,753.1358 A2.5,2.5 0 0 1 1856.5,750.6358 L1856.5,698.5679 A2.5,2.5 0 0 1 1859,696.0679" fill="#FFFFFF" style="stroke:#181818;stroke-width:0.5;"/><line style="stroke:#181818;stroke-width:0.5;" x1="1856.5" x2="1909.5" y1="717.0679" y2="717.0679"/><text fill="#000000" font-family="Monospace" font-size="14" lengthAdjust="spacing" textLength="357.3766" x="1866.5" y="739.0339">MTH470-Theory_of_Functions_of_a_Complex_Variable/</text></g><g class="link" data-entity-1="ent0002" data-entity-2="ent0003" data-link-type="dependency" id="lnk40"><polygon fill="#181818" points="444,215.7108,448,206.7108,444,210.7108,440,206.7108,444,215.7108" style="stroke:#181818;stroke-width:1;"/><path d="M444,180.112 C444,191.6283 444,198.239 444,209.7108" fill="none" style="stroke:#181818;stroke-width:1;"/></g><g class="link" data-entity-1="ent0003" data-entity-2="ent0004" data-link-type="dependency" id="lnk41"><polygon fill="#181818" points="444,337.8958,448,328.8958,444,332.8958,440,328.8958,444,337.8958" style="stroke:#181818;stroke-width:1;"/><path d="M444,293.1766 C444,308.4318 444,319.3691 444,331.8958" fill="none" style="stroke:#181818;stroke-width:1;"/></g><g class="link" data-entity-1="ent0004" data-entity-2="ent0005" data-link-type="dependency" id="lnk42"><polygon fill="#181818" points="188.3022,440.9575,198.1467,441.2523,192.93,439.0644,195.1178,433.8478,188.3022,440.9575" style="stroke:#181818;stroke-width:1;"/><path d="M373.4914,377.0914 C347.4048,384.3433 317.6936,393.0756 291,402.0679 C256.0706,413.8346 222.8205,426.8375 193.8556,438.6858" fill="none" style="stroke:#181818;stroke-width:1;"/></g><g class="link" data-entity-1="ent0004" data-entity-2="ent0006" data-link-type="dependency" id="lnk43"><polygon fill="#181818" points="444,440.8184,448,431.8184,444,435.8184,440,431.8184,444,440.8184" style="stroke:#181818;stroke-width:1;"/><path d="M444,377.0929 C444,395.2026 444,416.632 444,434.8184" fill="none" style="stroke:#181818;stroke-width:1;"/></g><g class="link" data-entity-1="ent0004" data-entity-2="ent0008" data-link-type="dependency" id="lnk44"><polygon fill="#181818" points="569.161,524.8955,578.4809,521.7112,572.8281,521.4966,573.0427,515.8438,569.161,524.8955" style="stroke:#181818;stroke-width:1;"/><path d="M543.0676,377.1679 C567.3361,383.8087 588.5227,392.1505 596,402.0679 C619.2782,432.9425 611.0714,453.4594 596,489.0679 C590.2143,502.7375 584.3225,510.843 573.5616,520.8168" fill="none" style="stroke:#181818;stroke-width:1;"/></g><g class="link" data-entity-1="ent0005" data-entity-2="ent0008" data-link-type="dependency" id="lnk45"><polygon fill="#181818" points="411.6709,525.0184,403.8362,519.0504,406.8057,523.8651,401.991,526.8347,411.6709,525.0184" style="stroke:#181818;stroke-width:1;"/><path d="M222.1129,480.0843 C276.5254,492.9826 344.255,509.0377 405.8327,523.6345" fill="none" style="stroke:#181818;stroke-width:1;"/></g><g class="link" data-entity-1="ent0006" data-entity-2="ent0008" data-link-type="dependency" id="lnk46"><polygon fill="#181818" points="503.4698,524.841,500.2206,515.5435,500.0454,521.1976,494.3913,521.0224,503.4698,524.841" style="stroke:#181818;stroke-width:1;"/><path d="M461.4034,480.0843 C473.4773,492.9304 485.6753,505.9085 499.3606,520.469" fill="none" style="stroke:#181818;stroke-width:1;"/></g><g class="link" data-entity-1="ent0007" data-entity-2="ent0008" data-link-type="dependency" id="lnk47"><polygon fill="#181818" points="587.3252,525.0184,597.1674,524.6557,591.8164,522.8208,593.6513,517.4699,587.3252,525.0184" style="stroke:#181818;stroke-width:1;"/><path d="M679.1578,480.0843 C652.7973,492.9826 622.5464,507.7845 592.7147,522.3813" fill="none" style="stroke:#181818;stroke-width:1;"/></g><g class="link" data-entity-1="ent0008" data-entity-2="ent0009" data-link-type="dependency" id="lnk48"><polygon fill="#181818" points="530,618.9751,534,609.9751,530,613.9751,526,609.9751,530,618.9751" style="stroke:#181818;stroke-width:1;"/><path d="M530,583.271 C530,593.5766 530,599.9298 530,612.9751" fill="none" style="stroke:#181818;stroke-width:1;"/></g><?plantuml-src bLPDK-is5DtxLwYmA5sO12SXwQOp9h4BCoHznKoxOSPpRIk9YYLv91d8TDv_xvLZOYNWnvH5iAnxpltGkV8rp9IKr8AzKAMPsVcvh9Mchr8zamTQINmdrOw4AjyoGtDJAqeI0yfGvVrKATXm82NiP6s8vjI00Ezdig2upPbWsh2SwBqvsL115HXQaBMIdAYENHjLxwcp7G7hgiHGBZtzp4G52ZZHMoZaAnCRiePIKsUde6keInDBOLR0ALbA8NK5kMk3osVOqCJiC5U5MO3ObAv1oGGrkueIgSnMUXxa61UP8wTYMMsVGPEyMte74dBs48MBPNJ9YoSH_Xwj7fFcyJvAaZzMoNqKFgoY1RuwinGRYMKM879ApgCWciL3bwcGkHuuNdnmgkvdPKqhnOHv9pky8EUBcoYCemzS1OCDfgS7jjP7R9TLpSk6fIf165oa6W_UnXNFesay-ZzSXO9N9Xks_UCFk2utp6phR605jYxbgnuqkCCISvbRb8kPDv8aZ_26PyjtJs92T9tzWmOe5ehe0Gd6P2zSKZ2Bb8fHtJ2R5fNgcdD0iPr7mpWuBjPSSYu5ML5jrRcWfUq6o70h1evQfFf9tFuzU1BVbBHkyIdKccq4fy9eN4Llm0VsnovY9g34_ojfg5tVGwORBDLe3eP9OTUEcxO8el6VLc2mNKHNYbQ-v2nfimvjrcTOtbaSndFohqV8mMP-bv2BeAs6_WMjeYYUnd5ZHSXQbWNseZMRN4tzHEOCoXGBKDK6ssiVICvqUeNqpTy7s7NWHm8ZHErfsa5J44MQx305hjCxD42vs5mxoi2X_7uKSp8d5rV3huDEvgEheNzRSn2jOweQNmexjlEbyxxmaM0qyG_G5JLMURh31RsuMO3LMfjNb5mQYGtU65Hr5KFeg1ywzXTW80Eiru9QuNIeSHzgF9isg7I95wdhPzA7c61gOV5YhvSYFStnYEAwb-BQgSx-C5FtxkyefhqKKuoYt607cYrlH649I_g6LteQOcliD7CAFklbcGsxR7vS-L_xEOAEut04UA_dj3Aw2IwigfBbRLTsyXdsQJMQhyZ5w4kfejdeUkWtsXGDExPPbDkhYEMj8vgB7frQz7JeVwipZ2sr5mf6t862Fj0OQ_Pd3VQMGPylD5rI_9uLEbrBbRPiOR7_ChlTQKb7VHdVhMwmEzkCUnD6gz5iSfBmJQtnj7IRBnFPKRv7NfQFj-HYzcLTqImOOcMKbElz0IRlmqFhXPjjJrKHEvfCdHQ1Cg_Bsi45lRYf8oHqda7Mp2WTTDGF7VkhcgDaSwp8SGDOuBWVEF6NOBQKOpajDh67QaSg1ptfHUDXtA8rpbUfNASTaGE-xWEFXu7ZMcEbAcGIj8DEUw6esySjRTt6jMWkPcqNy7uJf7-1OlR3r_7DZdJntVESEOZu_c_EwEGvKvJTESn1NZSHsVSdayt9xj6aSh9tEZDufqFIfqR7iy-d9jsOy-dsXrd5MfrC1Vy1?></g></svg>